{"asset":{"version":"2.0","generator":"Blockbench 4.11.2 glTF exporter"},"scenes":[{"nodes":[6],"name":"blockbench_export"}],"scene":0,"nodes":[{"rotation":[0,-1,0,6.123233995736766e-17],"name":"cube.001"},{"rotation":[0,-1,0,6.123233995736766e-17],"name":"cube.001_m_664cb654-3e85-e309-a5ce-088eda315f0d.002","mesh":0},{"rotation":[0,-1,0,6.123233995736766e-17],"name":"cube.003"},{"rotation":[0,-1,0,6.123233995736766e-17],"name":"cube.003_m_5d003690-ee9d-8c32-e7f1-77120467c2d6.002","mesh":1},{"rotation":[0,-1,0,6.123233995736766e-17],"name":"poignée"},{"rotation":[0,-1,0,6.123233995736766e-17],"name":"poignée_m_6badf1e8-53a1-d107-0431-b75edb5b3c34.002","mesh":2},{"children":[0,1,2,3,4,5]}],"bufferViews":[{"buffer":0,"byteOffset":0,"byteLength":576,"target":34962,"byteStride":12},{"buffer":0,"byteOffset":576,"byteLength":576,"target":34962,"byteStride":12},{"buffer":0,"byteOffset":1152,"byteLength":384,"target":34962,"byteStride":8},{"buffer":0,"byteOffset":1536,"byteLength":144,"target":34963},{"buffer":0,"byteOffset":1680,"byteLength":1440,"target":34962,"byteStride":12},{"buffer":0,"byteOffset":3120,"byteLength":1440,"target":34962,"byteStride":12},{"buffer":0,"byteOffset":4560,"byteLength":960,"target":34962,"byteStride":8},{"buffer":0,"byteOffset":5520,"byteLength":360,"target":34963},{"buffer":0,"byteOffset":5880,"byteLength":1512,"target":34962,"byteStride":12},{"buffer":0,"byteOffset":7392,"byteLength":1512,"target":34962,"byteStride":12},{"buffer":0,"byteOffset":8904,"byteLength":1008,"target":34962,"byteStride":8},{"buffer":0,"byteOffset":9912,"byteLength":348,"target":34963}],"buffers":[{"byteLength":10260,"uri":"data:application/octet-stream;base64,"}],"accessors":[{"bufferView":0,"componentType":5126,"count":48,"max":[5,15,5],"min":[-5,-5,-4.6875],"type":"VEC3"},{"bufferView":1,"componentType":5126,"count":48,"max":[1,1,1],"min":[-1,-1,-1],"type":"VEC3"},{"bufferView":2,"componentType":5126,"count":48,"max":[2.9375,3],"min":[0,0],"type":"VEC2"},{"bufferView":3,"componentType":5123,"count":72,"max":[47],"min":[0],"type":"SCALAR"},{"bufferView":4,"componentType":5126,"count":120,"max":[5,15,-4.375],"min":[-4.375,-5,-4.6875],"type":"VEC3"},{"bufferView":5,"componentType":5126,"count":120,"max":[1,1,1],"min":[-1,-1,-1],"type":"VEC3"},{"bufferView":6,"componentType":5126,"count":120,"max":[1.875,1.96875],"min":[0,0],"type":"VEC2"},{"bufferView":7,"componentType":5123,"count":180,"max":[119],"min":[0],"type":"SCALAR"},{"bufferView":8,"componentType":5126,"count":126,"max":[4.375,-1.875,-4.53125],"min":[3.75,-4.375,-4.84375],"type":"VEC3"},{"bufferView":9,"componentType":5126,"count":126,"max":[1,1,1],"min":[-1,-1,-1],"type":"VEC3"},{"bufferView":10,"componentType":5126,"count":126,"max":[1.9375,2.25],"min":[0,0],"type":"VEC2"},{"bufferView":11,"componentType":5123,"count":174,"max":[125],"min":[0],"type":"SCALAR"}],"materials":[{"pbrMetallicRoughness":{"metallicFactor":0,"roughnessFactor":1},"alphaMode":"MASK","alphaCutoff":0.05,"doubleSided":true}],"meshes":[{"primitives":[{"mode":4,"attributes":{"POSITION":0,"NORMAL":1,"TEXCOORD_0":2},"indices":3,"material":0}]},{"primitives":[{"mode":4,"attributes":{"POSITION":4,"NORMAL":5,"TEXCOORD_0":6},"indices":7,"material":0}]},{"primitives":[{"mode":4,"attributes":{"POSITION":8,"NORMAL":9,"TEXCOORD_0":10},"indices":11,"material":0}]}]}