{"asset":{"version":"2.0","generator":"Blockbench 4.11.2 glTF exporter"},"scenes":[{"nodes":[2],"name":"blockbench_export"}],"scene":0,"nodes":[{"rotation":[0,-1,0,6.123233995736766e-17],"name":"cube_m_c07e4f9e-d2b9-9c1e-9d6e-5e10ddfb0b6e.001","mesh":0},{"rotation":[0,-1,0,6.123233995736766e-17],"name":"plane_m_f5ee5c1e-e6c2-9fae-8eef-8cc4e4921f7a.001","mesh":1},{"children":[0,1]}],"bufferViews":[{"buffer":0,"byteOffset":0,"byteLength":288,"target":34962,"byteStride":12},{"buffer":0,"byteOffset":288,"byteLength":288,"target":34962,"byteStride":12},{"buffer":0,"byteOffset":576,"byteLength":192,"target":34962,"byteStride":8},{"buffer":0,"byteOffset":768,"byteLength":72,"target":34963},{"buffer":0,"byteOffset":840,"byteLength":1464,"target":34962,"byteStride":12},{"buffer":0,"byteOffset":2304,"byteLength":1464,"target":34962,"byteStride":12},{"buffer":0,"byteOffset":3768,"byteLength":976,"target":34962,"byteStride":8},{"buffer":0,"byteOffset":4744,"byteLength":360,"target":34963}],"buffers":[{"byteLength":5104,"uri":"data:application/octet-stream;base64,"}],"accessors":[{"bufferView":0,"componentType":5126,"count":24,"max":[5,1.875,5],"min":[-5,0.625,4.375],"type":"VEC3"},{"bufferView":1,"componentType":5126,"count":24,"max":[1,1,1],"min":[-1,-1,-1],"type":"VEC3"},{"bufferView":2,"componentType":5126,"count":24,"max":[1,0.5],"min":[0,0],"type":"VEC2"},{"bufferView":3,"componentType":5123,"count":36,"max":[23],"min":[0],"type":"SCALAR"},{"bufferView":4,"componentType":5126,"count":122,"max":[3.125,3.75,4.625],"min":[-3.125,-3.125,4],"type":"VEC3"},{"bufferView":5,"componentType":5126,"count":122,"max":[1,1,1],"min":[-1,-1,-1],"type":"VEC3"},{"bufferView":6,"componentType":5126,"count":122,"max":[1,1],"min":[0,0],"type":"VEC2"},{"bufferView":7,"componentType":5123,"count":180,"max":[121],"min":[0],"type":"SCALAR"}],"materials":[{"pbrMetallicRoughness":{"metallicFactor":0,"roughnessFactor":1,"baseColorTexture":{"index":0}},"alphaMode":"MASK","alphaCutoff":0.05,"doubleSided":true},{"pbrMetallicRoughness":{"metallicFactor":0,"roughnessFactor":1,"baseColorTexture":{"index":1}},"alphaMode":"MASK","alphaCutoff":0.05,"doubleSided":true}],"textures":[{"sampler":0,"source":0,"name":"knives_holder.png"},{"sampler":1,"source":1,"name":"knives.png"}],"samplers":[{"magFilter":9728,"minFilter":9728,"wrapS":33071,"wrapT":33071},{"magFilter":9728,"minFilter":9728,"wrapS":33071,"wrapT":33071}],"images":[{"mimeType":"image/png","name":"knives_holder.png","uri":"knives_holder.png"},{"mimeType":"image/png","name":"knives.png","uri":"knives.png"}],"meshes":[{"primitives":[{"mode":4,"attributes":{"POSITION":0,"NORMAL":1,"TEXCOORD_0":2},"indices":3,"material":0}]},{"primitives":[{"mode":4,"attributes":{"POSITION":4,"NORMAL":5,"TEXCOORD_0":6},"indices":7,"material":1}]}]}