{"asset":{"version":"2.0","generator":"Blockbench 4.11.2 glTF exporter"},"scenes":[{"nodes":[3],"name":"blockbench_export"}],"scene":0,"nodes":[{"translation":[0.6567427958622383,-1.875,-0.5017670516984921],"name":"cube","mesh":0},{"translation":[0.6567427958622383,-1.875,-0.5017670516984921],"name":"cube","mesh":1},{"translation":[0.6567427958622383,-1.875,-0.5017670516984921],"name":"cube","mesh":2},{"children":[0,1,2]}],"bufferViews":[{"buffer":0,"byteOffset":0,"byteLength":288,"target":34962,"byteStride":12},{"buffer":0,"byteOffset":288,"byteLength":288,"target":34962,"byteStride":12},{"buffer":0,"byteOffset":576,"byteLength":192,"target":34962,"byteStride":8},{"buffer":0,"byteOffset":768,"byteLength":72,"target":34963},{"buffer":0,"byteOffset":840,"byteLength":288,"target":34962,"byteStride":12},{"buffer":0,"byteOffset":1128,"byteLength":288,"target":34962,"byteStride":12},{"buffer":0,"byteOffset":1416,"byteLength":192,"target":34962,"byteStride":8},{"buffer":0,"byteOffset":1608,"byteLength":72,"target":34963},{"buffer":0,"byteOffset":1680,"byteLength":384,"target":34962,"byteStride":12},{"buffer":0,"byteOffset":2064,"byteLength":384,"target":34962,"byteStride":12},{"buffer":0,"byteOffset":2448,"byteLength":256,"target":34962,"byteStride":8},{"buffer":0,"byteOffset":2704,"byteLength":96,"target":34963}],"buffers":[{"byteLength":2800,"uri":"data:application/octet-stream;base64,"}],"accessors":[{"bufferView":0,"componentType":5126,"count":24,"max":[-0.34424278140068054,3.125,0.8142670392990112],"min":[-0.9692428112030029,2.5,0.18926703929901123],"type":"VEC3"},{"bufferView":1,"componentType":5126,"count":24,"max":[1,1,1],"min":[-1,-1,-1],"type":"VEC3"},{"bufferView":2,"componentType":5126,"count":24,"max":[0.5625,0.5625],"min":[0.375,0.3125],"type":"VEC2"},{"bufferView":3,"componentType":5123,"count":36,"max":[23],"min":[0],"type":"SCALAR"},{"bufferView":4,"componentType":5126,"count":24,"max":[1.843257188796997,-2.5,3.001767158508301],"min":[-3.156742811203003,-3.125,-1.9982328414916992],"type":"VEC3"},{"bufferView":5,"componentType":5126,"count":24,"max":[1,1,1],"min":[-1,-1,-1],"type":"VEC3"},{"bufferView":6,"componentType":5126,"count":24,"max":[0.5,0.5],"min":[0,0],"type":"VEC2"},{"bufferView":7,"componentType":5123,"count":36,"max":[23],"min":[0],"type":"SCALAR"},{"bufferView":8,"componentType":5126,"count":32,"max":[2.976141929626465,2.5,2.376767158508301],"min":[-2.531742811203003,-2.5,-1.901505708694458],"type":"VEC3"},{"bufferView":9,"componentType":5126,"count":32,"max":[1,1,1],"min":[-1,-1,-1],"type":"VEC3"},{"bufferView":10,"componentType":5126,"count":32,"max":[0.625,0.6875],"min":[0,0],"type":"VEC2"},{"bufferView":11,"componentType":5123,"count":48,"max":[31],"min":[0],"type":"SCALAR"}],"materials":[{"pbrMetallicRoughness":{"metallicFactor":0,"roughnessFactor":1,"baseColorTexture":{"index":0}},"alphaMode":"MASK","alphaCutoff":0.05,"doubleSided":true},{"pbrMetallicRoughness":{"metallicFactor":0,"roughnessFactor":1,"baseColorTexture":{"index":1}},"alphaMode":"MASK","alphaCutoff":0.05,"doubleSided":true}],"textures":[{"sampler":0,"source":0,"name":"parquet.png"},{"sampler":1,"source":1,"name":"sopalin.png"}],"samplers":[{"magFilter":9728,"minFilter":9728,"wrapS":33071,"wrapT":33071},{"magFilter":9728,"minFilter":9728,"wrapS":33071,"wrapT":33071}],"images":[{"mimeType":"image/png","name":"parquet.png","uri":"parquet.png"},{"mimeType":"image/png","name":"sopalin.png","uri":"sopalin.png"}],"meshes":[{"primitives":[{"mode":4,"attributes":{"POSITION":0,"NORMAL":1,"TEXCOORD_0":2},"indices":3,"material":0}]},{"primitives":[{"mode":4,"attributes":{"POSITION":4,"NORMAL":5,"TEXCOORD_0":6},"indices":7,"material":0}]},{"primitives":[{"mode":4,"attributes":{"POSITION":8,"NORMAL":9,"TEXCOORD_0":10},"indices":11,"material":1}]}]}