{"asset":{"version":"2.0","generator":"Blockbench 4.11.2 glTF exporter"},"scenes":[{"nodes":[5],"name":"blockbench_export"}],"scene":0,"nodes":[{"translation":[0,-5,0],"name":"cube","mesh":0},{"rotation":[0,0.7071067811865475,0,0.7071067811865476],"translation":[-1.25,-4.375,-0.625],"name":"cube","mesh":1},{"translation":[-1.25,-4.375,1.25],"name":"cube","mesh":2},{"translation":[2.5,-4.375,1.875],"name":"cube","mesh":3},{"translation":[0,-4.375,1.25],"name":"cylinder","mesh":4},{"children":[0,1,2,3,4]}],"bufferViews":[{"buffer":0,"byteOffset":0,"byteLength":288,"target":34962,"byteStride":12},{"buffer":0,"byteOffset":288,"byteLength":288,"target":34962,"byteStride":12},{"buffer":0,"byteOffset":576,"byteLength":192,"target":34962,"byteStride":8},{"buffer":0,"byteOffset":768,"byteLength":72,"target":34963},{"buffer":0,"byteOffset":840,"byteLength":1440,"target":34962,"byteStride":12},{"buffer":0,"byteOffset":2280,"byteLength":1440,"target":34962,"byteStride":12},{"buffer":0,"byteOffset":3720,"byteLength":960,"target":34962,"byteStride":8},{"buffer":0,"byteOffset":4680,"byteLength":336,"target":34963},{"buffer":0,"byteOffset":5016,"byteLength":576,"target":34962,"byteStride":12},{"buffer":0,"byteOffset":5592,"byteLength":576,"target":34962,"byteStride":12},{"buffer":0,"byteOffset":6168,"byteLength":384,"target":34962,"byteStride":8},{"buffer":0,"byteOffset":6552,"byteLength":144,"target":34963},{"buffer":0,"byteOffset":6696,"byteLength":864,"target":34962,"byteStride":12},{"buffer":0,"byteOffset":7560,"byteLength":864,"target":34962,"byteStride":12},{"buffer":0,"byteOffset":8424,"byteLength":576,"target":34962,"byteStride":8},{"buffer":0,"byteOffset":9000,"byteLength":216,"target":34963},{"buffer":0,"byteOffset":9216,"byteLength":3744,"target":34962,"byteStride":12},{"buffer":0,"byteOffset":12960,"byteLength":3744,"target":34962,"byteStride":12},{"buffer":0,"byteOffset":16704,"byteLength":2496,"target":34962,"byteStride":8},{"buffer":0,"byteOffset":19200,"byteLength":864,"target":34963}],"buffers":[{"byteLength":20064,"uri":"data:application/octet-stream;base64,"}],"accessors":[{"bufferView":0,"componentType":5126,"count":24,"max":[3.75,0.625,3.125],"min":[-3.75,0,-3.125],"type":"VEC3"},{"bufferView":1,"componentType":5126,"count":24,"max":[1,1,1],"min":[-1,-1,-1],"type":"VEC3"},{"bufferView":2,"componentType":5126,"count":24,"max":[0.75,0.625],"min":[0,0],"type":"VEC2"},{"bufferView":3,"componentType":5123,"count":36,"max":[23],"min":[0],"type":"SCALAR"},{"bufferView":4,"componentType":5126,"count":120,"max":[1.875,0.625,2.5],"min":[-2.7755575615628914e-16,0,-5.551115123125783e-16],"type":"VEC3"},{"bufferView":5,"componentType":5126,"count":120,"max":[1,1,1],"min":[-1,-1,-1],"type":"VEC3"},{"bufferView":6,"componentType":5126,"count":120,"max":[0.75,0.6875],"min":[0,0],"type":"VEC2"},{"bufferView":7,"componentType":5123,"count":168,"max":[119],"min":[0],"type":"SCALAR"},{"bufferView":8,"componentType":5126,"count":48,"max":[-0.4375,0.1875,0.625],"min":[-1.25,0,-3.75],"type":"VEC3"},{"bufferView":9,"componentType":5126,"count":48,"max":[1,1,1],"min":[-1,-1,-1],"type":"VEC3"},{"bufferView":10,"componentType":5126,"count":48,"max":[0.625,0.875],"min":[0,0],"type":"VEC2"},{"bufferView":11,"componentType":5123,"count":72,"max":[47],"min":[0],"type":"SCALAR"},{"bufferView":12,"componentType":5126,"count":72,"max":[0.625,1.25,0.625],"min":[-0.625,0,-4.375],"type":"VEC3"},{"bufferView":13,"componentType":5126,"count":72,"max":[1,1,1],"min":[-1,-1,-1],"type":"VEC3"},{"bufferView":14,"componentType":5126,"count":72,"max":[0.875,0.875],"min":[0,0],"type":"VEC2"},{"bufferView":15,"componentType":5123,"count":108,"max":[71],"min":[0],"type":"SCALAR"},{"bufferView":16,"componentType":5126,"count":312,"max":[0.9375,0.625,0.9375],"min":[-0.9375,0,-0.9375],"type":"VEC3"},{"bufferView":17,"componentType":5126,"count":312,"max":[1,1,1],"min":[-1,-1,-1],"type":"VEC3"},{"bufferView":18,"componentType":5126,"count":312,"max":[0.8027437329292297,0.71875],"min":[0,0],"type":"VEC2"},{"bufferView":19,"componentType":5123,"count":432,"max":[311],"min":[0],"type":"SCALAR"}],"materials":[{"pbrMetallicRoughness":{"metallicFactor":0,"roughnessFactor":1,"baseColorTexture":{"index":0}},"alphaMode":"MASK","alphaCutoff":0.05,"doubleSided":true},{"pbrMetallicRoughness":{"metallicFactor":0,"roughnessFactor":1,"baseColorTexture":{"index":1}},"alphaMode":"MASK","alphaCutoff":0.05,"doubleSided":true},{"pbrMetallicRoughness":{"metallicFactor":0,"roughnessFactor":1,"baseColorTexture":{"index":2}},"alphaMode":"MASK","alphaCutoff":0.05,"doubleSided":true},{"pbrMetallicRoughness":{"metallicFactor":0,"roughnessFactor":1,"baseColorTexture":{"index":3}},"alphaMode":"MASK","alphaCutoff":0.05,"doubleSided":true},{"pbrMetallicRoughness":{"metallicFactor":0,"roughnessFactor":1,"baseColorTexture":{"index":4}},"alphaMode":"MASK","alphaCutoff":0.05,"doubleSided":true}],"textures":[{"sampler":0,"source":0,"name":"sushi_tray.png"},{"sampler":1,"source":1,"name":"sushi_whites.png"},{"sampler":2,"source":2,"name":"sushi_shopsticks.png"},{"sampler":3,"source":3,"name":"sushi_blacks.png"},{"sampler":4,"source":4,"name":"sushi_sauce.png"}],"samplers":[{"magFilter":9728,"minFilter":9728,"wrapS":33071,"wrapT":33071},{"magFilter":9728,"minFilter":9728,"wrapS":33071,"wrapT":33071},{"magFilter":9728,"minFilter":9728,"wrapS":33071,"wrapT":33071},{"magFilter":9728,"minFilter":9728,"wrapS":33071,"wrapT":33071},{"magFilter":9728,"minFilter":9728,"wrapS":33071,"wrapT":33071}],"images":[{"mimeType":"image/png","uri":"data:image/png;base64,"},{"mimeType":"image/png","uri":"data:image/png;base64,"},{"mimeType":"image/png","uri":"data:image/png;base64,"},{"mimeType":"image/png","uri":"data:image/png;base64,"},{"mimeType":"image/png","uri":"data:image/png;base64,"}],"meshes":[{"primitives":[{"mode":4,"attributes":{"POSITION":0,"NORMAL":1,"TEXCOORD_0":2},"indices":3,"material":0}]},{"primitives":[{"mode":4,"attributes":{"POSITION":4,"NORMAL":5,"TEXCOORD_0":6},"indices":7,"material":1}]},{"primitives":[{"mode":4,"attributes":{"POSITION":8,"NORMAL":9,"TEXCOORD_0":10},"indices":11,"material":2}]},{"primitives":[{"mode":4,"attributes":{"POSITION":12,"NORMAL":13,"TEXCOORD_0":14},"indices":15,"material":3}]},{"primitives":[{"mode":4,"attributes":{"POSITION":16,"NORMAL":17,"TEXCOORD_0":18},"indices":19,"material":4}]}]}