{"asset":{"version":"2.0","generator":"Blockbench 4.11.2 glTF exporter"},"scenes":[{"nodes":[8],"name":"blockbench_export"}],"scene":0,"nodes":[{"translation":[0,-5,0],"name":"cube","mesh":0},{"translation":[-2.5,-5,-6.875],"name":"cube","mesh":1},{"translation":[0,-5,-6.25],"name":"cube","mesh":2},{"translation":[4.0625,3.75,-4.765625],"name":"poignée","mesh":3},{"translation":[0,3.125,-6.875],"name":"cube","mesh":4},{"translation":[0,-4.21875,-6.875],"name":"cube","mesh":5},{"translation":[-1.875,-0.625,-7.03125],"name":"cube","mesh":6},{"translation":[7.34375,-0.625,-7.03125],"name":"cube","mesh":7},{"children":[0,1,2,3,4,5,6,7]}],"bufferViews":[{"buffer":0,"byteOffset":0,"byteLength":288,"target":34962,"byteStride":12},{"buffer":0,"byteOffset":288,"byteLength":288,"target":34962,"byteStride":12},{"buffer":0,"byteOffset":576,"byteLength":192,"target":34962,"byteStride":8},{"buffer":0,"byteOffset":768,"byteLength":72,"target":34963},{"buffer":0,"byteOffset":840,"byteLength":288,"target":34962,"byteStride":12},{"buffer":0,"byteOffset":1128,"byteLength":288,"target":34962,"byteStride":12},{"buffer":0,"byteOffset":1416,"byteLength":192,"target":34962,"byteStride":8},{"buffer":0,"byteOffset":1608,"byteLength":72,"target":34963},{"buffer":0,"byteOffset":1680,"byteLength":288,"target":34962,"byteStride":12},{"buffer":0,"byteOffset":1968,"byteLength":288,"target":34962,"byteStride":12},{"buffer":0,"byteOffset":2256,"byteLength":192,"target":34962,"byteStride":8},{"buffer":0,"byteOffset":2448,"byteLength":72,"target":34963},{"buffer":0,"byteOffset":2520,"byteLength":1512,"target":34962,"byteStride":12},{"buffer":0,"byteOffset":4032,"byteLength":1512,"target":34962,"byteStride":12},{"buffer":0,"byteOffset":5544,"byteLength":1008,"target":34962,"byteStride":8},{"buffer":0,"byteOffset":6552,"byteLength":348,"target":34963},{"buffer":0,"byteOffset":6900,"byteLength":288,"target":34962,"byteStride":12},{"buffer":0,"byteOffset":7188,"byteLength":288,"target":34962,"byteStride":12},{"buffer":0,"byteOffset":7476,"byteLength":192,"target":34962,"byteStride":8},{"buffer":0,"byteOffset":7668,"byteLength":72,"target":34963},{"buffer":0,"byteOffset":7740,"byteLength":288,"target":34962,"byteStride":12},{"buffer":0,"byteOffset":8028,"byteLength":288,"target":34962,"byteStride":12},{"buffer":0,"byteOffset":8316,"byteLength":192,"target":34962,"byteStride":8},{"buffer":0,"byteOffset":8508,"byteLength":72,"target":34963},{"buffer":0,"byteOffset":8580,"byteLength":288,"target":34962,"byteStride":12},{"buffer":0,"byteOffset":8868,"byteLength":288,"target":34962,"byteStride":12},{"buffer":0,"byteOffset":9156,"byteLength":192,"target":34962,"byteStride":8},{"buffer":0,"byteOffset":9348,"byteLength":72,"target":34963},{"buffer":0,"byteOffset":9420,"byteLength":288,"target":34962,"byteStride":12},{"buffer":0,"byteOffset":9708,"byteLength":288,"target":34962,"byteStride":12},{"buffer":0,"byteOffset":9996,"byteLength":192,"target":34962,"byteStride":8},{"buffer":0,"byteOffset":10188,"byteLength":72,"target":34963}],"buffers":[{"byteLength":10260,"uri":"data:application/octet-stream;base64,"}],"accessors":[{"bufferView":0,"componentType":5126,"count":24,"max":[5,10,5],"min":[-5,0,-4.375],"type":"VEC3"},{"bufferView":1,"componentType":5126,"count":24,"max":[1,1,1],"min":[-1,-1,-1],"type":"VEC3"},{"bufferView":2,"componentType":5126,"count":24,"max":[2.9375,2],"min":[0,0],"type":"VEC2"},{"bufferView":3,"componentType":5123,"count":36,"max":[23],"min":[0],"type":"SCALAR"},{"bufferView":4,"componentType":5126,"count":24,"max":[-1.875,10,2.5],"min":[-2.5,0,2.1875],"type":"VEC3"},{"bufferView":5,"componentType":5126,"count":24,"max":[1,1,1],"min":[-1,-1,-1],"type":"VEC3"},{"bufferView":6,"componentType":5126,"count":24,"max":[1.8125,3],"min":[0.9375,2],"type":"VEC2"},{"bufferView":7,"componentType":5123,"count":36,"max":[23],"min":[0],"type":"SCALAR"},{"bufferView":8,"componentType":5126,"count":24,"max":[5,10,1.875],"min":[-4.375,2.5,1.71875],"type":"VEC3"},{"bufferView":9,"componentType":5126,"count":24,"max":[1,1,1],"min":[-1,-1,-1],"type":"VEC3"},{"bufferView":10,"componentType":5126,"count":24,"max":[1.875,1.625],"min":[0,0],"type":"VEC2"},{"bufferView":11,"componentType":5123,"count":36,"max":[23],"min":[0],"type":"SCALAR"},{"bufferView":12,"componentType":5126,"count":126,"max":[0.3125,0.625,0.234375],"min":[-0.3125,-1.875,-0.078125],"type":"VEC3"},{"bufferView":13,"componentType":5126,"count":126,"max":[1,1,1],"min":[-1,-1,-1],"type":"VEC3"},{"bufferView":14,"componentType":5126,"count":126,"max":[1.9375,2.25],"min":[0,0],"type":"VEC2"},{"bufferView":15,"componentType":5123,"count":174,"max":[125],"min":[0],"type":"SCALAR"},{"bufferView":16,"componentType":5126,"count":24,"max":[5,1.875,2.34375],"min":[-4.375,1.71875,2.1875],"type":"VEC3"},{"bufferView":17,"componentType":5126,"count":24,"max":[1,1,1],"min":[-1,-1,-1],"type":"VEC3"},{"bufferView":18,"componentType":5126,"count":24,"max":[0.9375,0.015625],"min":[0,0],"type":"VEC2"},{"bufferView":19,"componentType":5123,"count":36,"max":[23],"min":[0],"type":"SCALAR"},{"bufferView":20,"componentType":5126,"count":24,"max":[5,1.875,2.34375],"min":[-4.375,1.71875,2.1875],"type":"VEC3"},{"bufferView":21,"componentType":5126,"count":24,"max":[1,1,1],"min":[-1,-1,-1],"type":"VEC3"},{"bufferView":22,"componentType":5126,"count":24,"max":[0.9375,0.015625],"min":[0,0],"type":"VEC2"},{"bufferView":23,"componentType":5123,"count":36,"max":[23],"min":[0],"type":"SCALAR"},{"bufferView":24,"componentType":5126,"count":24,"max":[-2.34375,5.46875,2.5],"min":[-2.5,-1.71875,2.34375],"type":"VEC3"},{"bufferView":25,"componentType":5126,"count":24,"max":[1,1,1],"min":[-1,-1,-1],"type":"VEC3"},{"bufferView":26,"componentType":5126,"count":24,"max":[0.015625,0.71875],"min":[0,0],"type":"VEC2"},{"bufferView":27,"componentType":5123,"count":36,"max":[23],"min":[0],"type":"SCALAR"},{"bufferView":28,"componentType":5126,"count":24,"max":[-2.34375,5.46875,2.5],"min":[-2.5,-1.71875,2.34375],"type":"VEC3"},{"bufferView":29,"componentType":5126,"count":24,"max":[1,1,1],"min":[-1,-1,-1],"type":"VEC3"},{"bufferView":30,"componentType":5126,"count":24,"max":[0.015625,0.71875],"min":[0,0],"type":"VEC2"},{"bufferView":31,"componentType":5123,"count":36,"max":[23],"min":[0],"type":"SCALAR"}],"materials":[{"pbrMetallicRoughness":{"metallicFactor":0,"roughnessFactor":1,"baseColorTexture":{"index":0}},"alphaMode":"MASK","alphaCutoff":0.05,"doubleSided":true},{"pbrMetallicRoughness":{"metallicFactor":0,"roughnessFactor":1,"baseColorTexture":{"index":1}},"alphaMode":"MASK","alphaCutoff":0.05,"doubleSided":true},{"pbrMetallicRoughness":{"metallicFactor":0,"roughnessFactor":1,"baseColorTexture":{"index":2}},"alphaMode":"MASK","alphaCutoff":0.05,"doubleSided":true}],"textures":[{"sampler":0,"source":0,"name":"gris"},{"sampler":1,"source":1,"name":"noir"},{"sampler":2,"source":2,"name":"texture"}],"samplers":[{"magFilter":9728,"minFilter":9728,"wrapS":33071,"wrapT":33071},{"magFilter":9728,"minFilter":9728,"wrapS":33071,"wrapT":33071},{"magFilter":9728,"minFilter":9728,"wrapS":33071,"wrapT":33071}],"images":[{"mimeType":"image/png","name":"gris","uri":"gris.png"},{"mimeType":"image/png","name":"noir","uri":"noir.png"},{"mimeType":"image/png","name":"texture","uri":"texture.png"}],"meshes":[{"primitives":[{"mode":4,"attributes":{"POSITION":0,"NORMAL":1,"TEXCOORD_0":2},"indices":3,"material":0}]},{"primitives":[{"mode":4,"attributes":{"POSITION":4,"NORMAL":5,"TEXCOORD_0":6},"indices":7,"material":0}]},{"primitives":[{"mode":4,"attributes":{"POSITION":8,"NORMAL":9,"TEXCOORD_0":10},"indices":11,"material":1}]},{"primitives":[{"mode":4,"attributes":{"POSITION":12,"NORMAL":13,"TEXCOORD_0":14},"indices":15,"material":2}]},{"primitives":[{"mode":4,"attributes":{"POSITION":16,"NORMAL":17,"TEXCOORD_0":18},"indices":19,"material":1}]},{"primitives":[{"mode":4,"attributes":{"POSITION":20,"NORMAL":21,"TEXCOORD_0":22},"indices":23,"material":1}]},{"primitives":[{"mode":4,"attributes":{"POSITION":24,"NORMAL":25,"TEXCOORD_0":26},"indices":27,"material":1}]},{"primitives":[{"mode":4,"attributes":{"POSITION":28,"NORMAL":29,"TEXCOORD_0":30},"indices":31,"material":1}]}]}