{"asset":{"version":"2.0","generator":"Blockbench 4.11.2 glTF exporter"},"scenes":[{"nodes":[16],"name":"blockbench_export"}],"scene":0,"nodes":[{"rotation":[-0.9958049275746618,0,0,0.09150161866340252],"translation":[0,0.3125,-4.6875],"name":"plane","mesh":0},{"rotation":[-0.9958049275746618,0,0,0.09150161866340252],"translation":[0,0.9375,-4.6875],"name":"plane","mesh":1},{"rotation":[-0.9958049275746618,0,0,0.09150161866340252],"translation":[0,1.5625,-4.6875],"name":"plane","mesh":2},{"rotation":[-0.9958049275746618,0,0,0.09150161866340252],"translation":[0,2.1875,-4.6875],"name":"plane","mesh":3},{"rotation":[-0.9958049275746618,0,0,0.09150161866340252],"translation":[0,2.8125,-4.6875],"name":"plane","mesh":4},{"rotation":[-0.9958049275746618,0,0,0.09150161866340252],"translation":[0,3.4375,-4.6875],"name":"plane","mesh":5},{"rotation":[-0.9958049275746618,0,0,0.09150161866340252],"translation":[0,4.0625,-4.6875],"name":"plane","mesh":6},{"rotation":[-0.9958049275746618,0,0,0.09150161866340252],"translation":[0,4.6875,-4.6875],"name":"plane","mesh":7},{"rotation":[-0.9958049275746618,0,0,0.09150161866340252],"translation":[0,-0.3125,-4.6875],"name":"plane","mesh":8},{"rotation":[-0.9958049275746618,0,0,0.09150161866340252],"translation":[0,-4.6875,-4.6875],"name":"plane","mesh":9},{"rotation":[-0.9958049275746618,0,0,0.09150161866340252],"translation":[0,-4.0625,-4.6875],"name":"plane","mesh":10},{"rotation":[-0.9958049275746618,0,0,0.09150161866340252],"translation":[0,-3.4375,-4.6875],"name":"plane","mesh":11},{"rotation":[-0.9958049275746618,0,0,0.09150161866340252],"translation":[0,-2.8125,-4.6875],"name":"plane","mesh":12},{"rotation":[-0.9958049275746618,0,0,0.09150161866340252],"translation":[0,-2.1875,-4.6875],"name":"plane","mesh":13},{"rotation":[-0.9958049275746618,0,0,0.09150161866340252],"translation":[0,-1.5625,-4.6875],"name":"plane","mesh":14},{"rotation":[-0.9958049275746618,0,0,0.09150161866340252],"translation":[0,-0.9375,-4.6875],"name":"plane","mesh":15},{"children":[0,1,2,3,4,5,6,7,8,9,10,11,12,13,14,15]}],"bufferViews":[{"buffer":0,"byteOffset":0,"byteLength":48,"target":34962,"byteStride":12},{"buffer":0,"byteOffset":48,"byteLength":48,"target":34962,"byteStride":12},{"buffer":0,"byteOffset":96,"byteLength":32,"target":34962,"byteStride":8},{"buffer":0,"byteOffset":128,"byteLength":12,"target":34963},{"buffer":0,"byteOffset":140,"byteLength":48,"target":34962,"byteStride":12},{"buffer":0,"byteOffset":188,"byteLength":48,"target":34962,"byteStride":12},{"buffer":0,"byteOffset":236,"byteLength":32,"target":34962,"byteStride":8},{"buffer":0,"byteOffset":268,"byteLength":12,"target":34963},{"buffer":0,"byteOffset":280,"byteLength":48,"target":34962,"byteStride":12},{"buffer":0,"byteOffset":328,"byteLength":48,"target":34962,"byteStride":12},{"buffer":0,"byteOffset":376,"byteLength":32,"target":34962,"byteStride":8},{"buffer":0,"byteOffset":408,"byteLength":12,"target":34963},{"buffer":0,"byteOffset":420,"byteLength":48,"target":34962,"byteStride":12},{"buffer":0,"byteOffset":468,"byteLength":48,"target":34962,"byteStride":12},{"buffer":0,"byteOffset":516,"byteLength":32,"target":34962,"byteStride":8},{"buffer":0,"byteOffset":548,"byteLength":12,"target":34963},{"buffer":0,"byteOffset":560,"byteLength":48,"target":34962,"byteStride":12},{"buffer":0,"byteOffset":608,"byteLength":48,"target":34962,"byteStride":12},{"buffer":0,"byteOffset":656,"byteLength":32,"target":34962,"byteStride":8},{"buffer":0,"byteOffset":688,"byteLength":12,"target":34963},{"buffer":0,"byteOffset":700,"byteLength":48,"target":34962,"byteStride":12},{"buffer":0,"byteOffset":748,"byteLength":48,"target":34962,"byteStride":12},{"buffer":0,"byteOffset":796,"byteLength":32,"target":34962,"byteStride":8},{"buffer":0,"byteOffset":828,"byteLength":12,"target":34963},{"buffer":0,"byteOffset":840,"byteLength":48,"target":34962,"byteStride":12},{"buffer":0,"byteOffset":888,"byteLength":48,"target":34962,"byteStride":12},{"buffer":0,"byteOffset":936,"byteLength":32,"target":34962,"byteStride":8},{"buffer":0,"byteOffset":968,"byteLength":12,"target":34963},{"buffer":0,"byteOffset":980,"byteLength":48,"target":34962,"byteStride":12},{"buffer":0,"byteOffset":1028,"byteLength":48,"target":34962,"byteStride":12},{"buffer":0,"byteOffset":1076,"byteLength":32,"target":34962,"byteStride":8},{"buffer":0,"byteOffset":1108,"byteLength":12,"target":34963},{"buffer":0,"byteOffset":1120,"byteLength":48,"target":34962,"byteStride":12},{"buffer":0,"byteOffset":1168,"byteLength":48,"target":34962,"byteStride":12},{"buffer":0,"byteOffset":1216,"byteLength":32,"target":34962,"byteStride":8},{"buffer":0,"byteOffset":1248,"byteLength":12,"target":34963},{"buffer":0,"byteOffset":1260,"byteLength":48,"target":34962,"byteStride":12},{"buffer":0,"byteOffset":1308,"byteLength":48,"target":34962,"byteStride":12},{"buffer":0,"byteOffset":1356,"byteLength":32,"target":34962,"byteStride":8},{"buffer":0,"byteOffset":1388,"byteLength":12,"target":34963},{"buffer":0,"byteOffset":1400,"byteLength":48,"target":34962,"byteStride":12},{"buffer":0,"byteOffset":1448,"byteLength":48,"target":34962,"byteStride":12},{"buffer":0,"byteOffset":1496,"byteLength":32,"target":34962,"byteStride":8},{"buffer":0,"byteOffset":1528,"byteLength":12,"target":34963},{"buffer":0,"byteOffset":1540,"byteLength":48,"target":34962,"byteStride":12},{"buffer":0,"byteOffset":1588,"byteLength":48,"target":34962,"byteStride":12},{"buffer":0,"byteOffset":1636,"byteLength":32,"target":34962,"byteStride":8},{"buffer":0,"byteOffset":1668,"byteLength":12,"target":34963},{"buffer":0,"byteOffset":1680,"byteLength":48,"target":34962,"byteStride":12},{"buffer":0,"byteOffset":1728,"byteLength":48,"target":34962,"byteStride":12},{"buffer":0,"byteOffset":1776,"byteLength":32,"target":34962,"byteStride":8},{"buffer":0,"byteOffset":1808,"byteLength":12,"target":34963},{"buffer":0,"byteOffset":1820,"byteLength":48,"target":34962,"byteStride":12},{"buffer":0,"byteOffset":1868,"byteLength":48,"target":34962,"byteStride":12},{"buffer":0,"byteOffset":1916,"byteLength":32,"target":34962,"byteStride":8},{"buffer":0,"byteOffset":1948,"byteLength":12,"target":34963},{"buffer":0,"byteOffset":1960,"byteLength":48,"target":34962,"byteStride":12},{"buffer":0,"byteOffset":2008,"byteLength":48,"target":34962,"byteStride":12},{"buffer":0,"byteOffset":2056,"byteLength":32,"target":34962,"byteStride":8},{"buffer":0,"byteOffset":2088,"byteLength":12,"target":34963},{"buffer":0,"byteOffset":2100,"byteLength":48,"target":34962,"byteStride":12},{"buffer":0,"byteOffset":2148,"byteLength":48,"target":34962,"byteStride":12},{"buffer":0,"byteOffset":2196,"byteLength":32,"target":34962,"byteStride":8},{"buffer":0,"byteOffset":2228,"byteLength":12,"target":34963}],"buffers":[{"byteLength":2240,"uri":"data:application/octet-stream;base64,"}],"accessors":[{"bufferView":0,"componentType":5126,"count":4,"max":[5,0,0.3125],"min":[-5,0,-0.3125],"type":"VEC3"},{"bufferView":1,"componentType":5126,"count":4,"max":[0,1,0],"min":[0,1,0],"type":"VEC3"},{"bufferView":2,"componentType":5126,"count":4,"max":[1,0.0625],"min":[0,0],"type":"VEC2"},{"bufferView":3,"componentType":5123,"count":6,"max":[3],"min":[0],"type":"SCALAR"},{"bufferView":4,"componentType":5126,"count":4,"max":[5,0,0.3125],"min":[-5,0,-0.3125],"type":"VEC3"},{"bufferView":5,"componentType":5126,"count":4,"max":[0,1,0],"min":[0,1,0],"type":"VEC3"},{"bufferView":6,"componentType":5126,"count":4,"max":[1,0.125],"min":[0,0.0625],"type":"VEC2"},{"bufferView":7,"componentType":5123,"count":6,"max":[3],"min":[0],"type":"SCALAR"},{"bufferView":8,"componentType":5126,"count":4,"max":[5,0,0.3125],"min":[-5,0,-0.3125],"type":"VEC3"},{"bufferView":9,"componentType":5126,"count":4,"max":[0,1,0],"min":[0,1,0],"type":"VEC3"},{"bufferView":10,"componentType":5126,"count":4,"max":[1,0.1875],"min":[0,0.125],"type":"VEC2"},{"bufferView":11,"componentType":5123,"count":6,"max":[3],"min":[0],"type":"SCALAR"},{"bufferView":12,"componentType":5126,"count":4,"max":[5,0,0.3125],"min":[-5,0,-0.3125],"type":"VEC3"},{"bufferView":13,"componentType":5126,"count":4,"max":[0,1,0],"min":[0,1,0],"type":"VEC3"},{"bufferView":14,"componentType":5126,"count":4,"max":[1,0.25],"min":[0,0.1875],"type":"VEC2"},{"bufferView":15,"componentType":5123,"count":6,"max":[3],"min":[0],"type":"SCALAR"},{"bufferView":16,"componentType":5126,"count":4,"max":[5,0,0.3125],"min":[-5,0,-0.3125],"type":"VEC3"},{"bufferView":17,"componentType":5126,"count":4,"max":[0,1,0],"min":[0,1,0],"type":"VEC3"},{"bufferView":18,"componentType":5126,"count":4,"max":[1,0.3125],"min":[0,0.25],"type":"VEC2"},{"bufferView":19,"componentType":5123,"count":6,"max":[3],"min":[0],"type":"SCALAR"},{"bufferView":20,"componentType":5126,"count":4,"max":[5,0,0.3125],"min":[-5,0,-0.3125],"type":"VEC3"},{"bufferView":21,"componentType":5126,"count":4,"max":[0,1,0],"min":[0,1,0],"type":"VEC3"},{"bufferView":22,"componentType":5126,"count":4,"max":[1,0.375],"min":[0,0.3125],"type":"VEC2"},{"bufferView":23,"componentType":5123,"count":6,"max":[3],"min":[0],"type":"SCALAR"},{"bufferView":24,"componentType":5126,"count":4,"max":[5,0,0.3125],"min":[-5,0,-0.3125],"type":"VEC3"},{"bufferView":25,"componentType":5126,"count":4,"max":[0,1,0],"min":[0,1,0],"type":"VEC3"},{"bufferView":26,"componentType":5126,"count":4,"max":[1,0.4375],"min":[0,0.375],"type":"VEC2"},{"bufferView":27,"componentType":5123,"count":6,"max":[3],"min":[0],"type":"SCALAR"},{"bufferView":28,"componentType":5126,"count":4,"max":[5,0,0.3125],"min":[-5,0,-0.3125],"type":"VEC3"},{"bufferView":29,"componentType":5126,"count":4,"max":[0,1,0],"min":[0,1,0],"type":"VEC3"},{"bufferView":30,"componentType":5126,"count":4,"max":[1,0.5],"min":[0,0.4375],"type":"VEC2"},{"bufferView":31,"componentType":5123,"count":6,"max":[3],"min":[0],"type":"SCALAR"},{"bufferView":32,"componentType":5126,"count":4,"max":[5,0,0.3125],"min":[-5,0,-0.3125],"type":"VEC3"},{"bufferView":33,"componentType":5126,"count":4,"max":[0,1,0],"min":[0,1,0],"type":"VEC3"},{"bufferView":34,"componentType":5126,"count":4,"max":[1,0.5625],"min":[0,0.5],"type":"VEC2"},{"bufferView":35,"componentType":5123,"count":6,"max":[3],"min":[0],"type":"SCALAR"},{"bufferView":36,"componentType":5126,"count":4,"max":[5,0,0.3125],"min":[-5,0,-0.3125],"type":"VEC3"},{"bufferView":37,"componentType":5126,"count":4,"max":[0,1,0],"min":[0,1,0],"type":"VEC3"},{"bufferView":38,"componentType":5126,"count":4,"max":[1,0.625],"min":[0,0.5625],"type":"VEC2"},{"bufferView":39,"componentType":5123,"count":6,"max":[3],"min":[0],"type":"SCALAR"},{"bufferView":40,"componentType":5126,"count":4,"max":[5,0,0.3125],"min":[-5,0,-0.3125],"type":"VEC3"},{"bufferView":41,"componentType":5126,"count":4,"max":[0,1,0],"min":[0,1,0],"type":"VEC3"},{"bufferView":42,"componentType":5126,"count":4,"max":[1,0.6875],"min":[0,0.625],"type":"VEC2"},{"bufferView":43,"componentType":5123,"count":6,"max":[3],"min":[0],"type":"SCALAR"},{"bufferView":44,"componentType":5126,"count":4,"max":[5,0,0.3125],"min":[-5,0,-0.3125],"type":"VEC3"},{"bufferView":45,"componentType":5126,"count":4,"max":[0,1,0],"min":[0,1,0],"type":"VEC3"},{"bufferView":46,"componentType":5126,"count":4,"max":[1,0.75],"min":[0,0.6875],"type":"VEC2"},{"bufferView":47,"componentType":5123,"count":6,"max":[3],"min":[0],"type":"SCALAR"},{"bufferView":48,"componentType":5126,"count":4,"max":[5,0,0.3125],"min":[-5,0,-0.3125],"type":"VEC3"},{"bufferView":49,"componentType":5126,"count":4,"max":[0,1,0],"min":[0,1,0],"type":"VEC3"},{"bufferView":50,"componentType":5126,"count":4,"max":[1,0.8125],"min":[0,0.75],"type":"VEC2"},{"bufferView":51,"componentType":5123,"count":6,"max":[3],"min":[0],"type":"SCALAR"},{"bufferView":52,"componentType":5126,"count":4,"max":[5,0,0.3125],"min":[-5,0,-0.3125],"type":"VEC3"},{"bufferView":53,"componentType":5126,"count":4,"max":[0,1,0],"min":[0,1,0],"type":"VEC3"},{"bufferView":54,"componentType":5126,"count":4,"max":[1,0.875],"min":[0,0.8125],"type":"VEC2"},{"bufferView":55,"componentType":5123,"count":6,"max":[3],"min":[0],"type":"SCALAR"},{"bufferView":56,"componentType":5126,"count":4,"max":[5,0,0.3125],"min":[-5,0,-0.3125],"type":"VEC3"},{"bufferView":57,"componentType":5126,"count":4,"max":[0,1,0],"min":[0,1,0],"type":"VEC3"},{"bufferView":58,"componentType":5126,"count":4,"max":[1,0.9375],"min":[0,0.875],"type":"VEC2"},{"bufferView":59,"componentType":5123,"count":6,"max":[3],"min":[0],"type":"SCALAR"},{"bufferView":60,"componentType":5126,"count":4,"max":[5,0,0.3125],"min":[-5,0,-0.3125],"type":"VEC3"},{"bufferView":61,"componentType":5126,"count":4,"max":[0,1,0],"min":[0,1,0],"type":"VEC3"},{"bufferView":62,"componentType":5126,"count":4,"max":[1,1],"min":[0,0.9375],"type":"VEC2"},{"bufferView":63,"componentType":5123,"count":6,"max":[3],"min":[0],"type":"SCALAR"}],"materials":[{"pbrMetallicRoughness":{"metallicFactor":0,"roughnessFactor":1},"alphaMode":"MASK","alphaCutoff":0.05,"doubleSided":true}],"meshes":[{"primitives":[{"mode":4,"attributes":{"POSITION":0,"NORMAL":1,"TEXCOORD_0":2},"indices":3,"material":0}]},{"primitives":[{"mode":4,"attributes":{"POSITION":4,"NORMAL":5,"TEXCOORD_0":6},"indices":7,"material":0}]},{"primitives":[{"mode":4,"attributes":{"POSITION":8,"NORMAL":9,"TEXCOORD_0":10},"indices":11,"material":0}]},{"primitives":[{"mode":4,"attributes":{"POSITION":12,"NORMAL":13,"TEXCOORD_0":14},"indices":15,"material":0}]},{"primitives":[{"mode":4,"attributes":{"POSITION":16,"NORMAL":17,"TEXCOORD_0":18},"indices":19,"material":0}]},{"primitives":[{"mode":4,"attributes":{"POSITION":20,"NORMAL":21,"TEXCOORD_0":22},"indices":23,"material":0}]},{"primitives":[{"mode":4,"attributes":{"POSITION":24,"NORMAL":25,"TEXCOORD_0":26},"indices":27,"material":0}]},{"primitives":[{"mode":4,"attributes":{"POSITION":28,"NORMAL":29,"TEXCOORD_0":30},"indices":31,"material":0}]},{"primitives":[{"mode":4,"attributes":{"POSITION":32,"NORMAL":33,"TEXCOORD_0":34},"indices":35,"material":0}]},{"primitives":[{"mode":4,"attributes":{"POSITION":36,"NORMAL":37,"TEXCOORD_0":38},"indices":39,"material":0}]},{"primitives":[{"mode":4,"attributes":{"POSITION":40,"NORMAL":41,"TEXCOORD_0":42},"indices":43,"material":0}]},{"primitives":[{"mode":4,"attributes":{"POSITION":44,"NORMAL":45,"TEXCOORD_0":46},"indices":47,"material":0}]},{"primitives":[{"mode":4,"attributes":{"POSITION":48,"NORMAL":49,"TEXCOORD_0":50},"indices":51,"material":0}]},{"primitives":[{"mode":4,"attributes":{"POSITION":52,"NORMAL":53,"TEXCOORD_0":54},"indices":55,"material":0}]},{"primitives":[{"mode":4,"attributes":{"POSITION":56,"NORMAL":57,"TEXCOORD_0":58},"indices":59,"material":0}]},{"primitives":[{"mode":4,"attributes":{"POSITION":60,"NORMAL":61,"TEXCOORD_0":62},"indices":63,"material":0}]}]}