{"asset":{"version":"2.0","generator":"Blockbench 4.11.2 glTF exporter"},"scenes":[{"nodes":[4],"name":"blockbench_export"}],"scene":0,"nodes":[{"name":"cube.003_cube.007","mesh":0},{"name":"plane_plane.004","mesh":1},{"name":"plane.001_plane.005","mesh":2},{"name":"plane.002_plane.006","mesh":3},{"children":[0,1,2,3]}],"bufferViews":[{"buffer":0,"byteOffset":0,"byteLength":1152,"target":34962,"byteStride":12},{"buffer":0,"byteOffset":1152,"byteLength":1152,"target":34962,"byteStride":12},{"buffer":0,"byteOffset":2304,"byteLength":768,"target":34962,"byteStride":8},{"buffer":0,"byteOffset":3072,"byteLength":288,"target":34963},{"buffer":0,"byteOffset":3360,"byteLength":48,"target":34962,"byteStride":12},{"buffer":0,"byteOffset":3408,"byteLength":48,"target":34962,"byteStride":12},{"buffer":0,"byteOffset":3456,"byteLength":32,"target":34962,"byteStride":8},{"buffer":0,"byteOffset":3488,"byteLength":12,"target":34963},{"buffer":0,"byteOffset":3500,"byteLength":48,"target":34962,"byteStride":12},{"buffer":0,"byteOffset":3548,"byteLength":48,"target":34962,"byteStride":12},{"buffer":0,"byteOffset":3596,"byteLength":32,"target":34962,"byteStride":8},{"buffer":0,"byteOffset":3628,"byteLength":12,"target":34963},{"buffer":0,"byteOffset":3640,"byteLength":96,"target":34962,"byteStride":12},{"buffer":0,"byteOffset":3736,"byteLength":96,"target":34962,"byteStride":12},{"buffer":0,"byteOffset":3832,"byteLength":64,"target":34962,"byteStride":8},{"buffer":0,"byteOffset":3896,"byteLength":24,"target":34963}],"buffers":[{"byteLength":3920,"uri":"data:application/octet-stream;base64,"}],"accessors":[{"bufferView":0,"componentType":5126,"count":96,"max":[5,5,5],"min":[-5,-5,3.75],"type":"VEC3"},{"bufferView":1,"componentType":5126,"count":96,"max":[1,1,1],"min":[-1,-1,-1],"type":"VEC3"},{"bufferView":2,"componentType":5126,"count":96,"max":[0.4375,1],"min":[0,0],"type":"VEC2"},{"bufferView":3,"componentType":5123,"count":144,"max":[95],"min":[0],"type":"SCALAR"},{"bufferView":4,"componentType":5126,"count":4,"max":[5,5,3.6875],"min":[-5,-5,3.6875],"type":"VEC3"},{"bufferView":5,"componentType":5126,"count":4,"max":[0,0,-1],"min":[0,0,-1],"type":"VEC3"},{"bufferView":6,"componentType":5126,"count":4,"max":[1,1],"min":[0,0],"type":"VEC2"},{"bufferView":7,"componentType":5123,"count":6,"max":[3],"min":[0],"type":"SCALAR"},{"bufferView":8,"componentType":5126,"count":4,"max":[5,5,4.375],"min":[-5,-5,4.375],"type":"VEC3"},{"bufferView":9,"componentType":5126,"count":4,"max":[0,0,-1],"min":[0,0,-1],"type":"VEC3"},{"bufferView":10,"componentType":5126,"count":4,"max":[1,1],"min":[0,0],"type":"VEC2"},{"bufferView":11,"componentType":5123,"count":6,"max":[3],"min":[0],"type":"SCALAR"},{"bufferView":12,"componentType":5126,"count":8,"max":[5.0625,5,5],"min":[-5.0625,-5,3.75],"type":"VEC3"},{"bufferView":13,"componentType":5126,"count":8,"max":[1,0,0],"min":[1,0,0],"type":"VEC3"},{"bufferView":14,"componentType":5126,"count":8,"max":[0.125,1],"min":[0,0],"type":"VEC2"},{"bufferView":15,"componentType":5123,"count":12,"max":[7],"min":[0],"type":"SCALAR"}],"materials":[{"pbrMetallicRoughness":{"metallicFactor":0,"roughnessFactor":1,"baseColorTexture":{"index":0}},"alphaMode":"MASK","alphaCutoff":0.05,"doubleSided":true},{"pbrMetallicRoughness":{"metallicFactor":0,"roughnessFactor":1,"baseColorTexture":{"index":1}},"alphaMode":"MASK","alphaCutoff":0.05,"doubleSided":true},{"pbrMetallicRoughness":{"metallicFactor":0,"roughnessFactor":1,"baseColorTexture":{"index":2}},"alphaMode":"MASK","alphaCutoff":0.05,"doubleSided":true},{"pbrMetallicRoughness":{"metallicFactor":0,"roughnessFactor":1,"baseColorTexture":{"index":3}},"alphaMode":"MASK","alphaCutoff":0.05,"doubleSided":true}],"textures":[{"sampler":0,"source":0},{"sampler":1,"source":1},{"sampler":2,"source":2},{"sampler":3,"source":3}],"samplers":[{"magFilter":9728,"minFilter":9728,"wrapS":33071,"wrapT":33071},{"magFilter":9728,"minFilter":9728,"wrapS":33071,"wrapT":33071},{"magFilter":9728,"minFilter":9728,"wrapS":33071,"wrapT":33071},{"magFilter":9728,"minFilter":9728,"wrapS":33071,"wrapT":33071}],"images":[{"mimeType":"image/png","name":"barre.png","uri":"barre.png"},{"mimeType":"image/png","name":"feuille.png","uri":"feuille.png"},{"mimeType":"image/png","name":"feuille_milieu.png","uri":"feuille_milieu.png"},{"mimeType":"image/png","name":"feuille_cote.png","uri":"feuille_cote.png"}],"meshes":[{"primitives":[{"mode":4,"attributes":{"POSITION":0,"NORMAL":1,"TEXCOORD_0":2},"indices":3,"material":0}]},{"primitives":[{"mode":4,"attributes":{"POSITION":4,"NORMAL":5,"TEXCOORD_0":6},"indices":7,"material":1}]},{"primitives":[{"mode":4,"attributes":{"POSITION":8,"NORMAL":9,"TEXCOORD_0":10},"indices":11,"material":2}]},{"primitives":[{"mode":4,"attributes":{"POSITION":12,"NORMAL":13,"TEXCOORD_0":14},"indices":15,"material":3}]}]}